<svg width="64" height="64" viewBox="0 0 64 64" fill="none" xmlns="http://www.w3.org/2000/svg">
<g filter="url(#filter0_d_2_9574)">
<circle cx="32" cy="28" r="28" fill="#F4F7FE"/>
<g clip-path="url(#clip0_2_9574)">
<path d="M24.2841 24.3135H24.5578C25.6115 24.3135 26.4736 25.1756 26.4736 26.2293V35.8081C26.4736 36.8618 25.6115 37.7239 24.5578 37.7239H24.2841C23.2305 37.7239 22.3684 36.8618 22.3684 35.8081V26.2293C22.3684 25.1756 23.2305 24.3135 24.2841 24.3135ZM31.9472 18.5662C33.0009 18.5662 33.863 19.4283 33.863 20.482V35.8081C33.863 36.8618 33.0009 37.7239 31.9472 37.7239C30.8935 37.7239 30.0314 36.8618 30.0314 35.8081V20.482C30.0314 19.4283 30.8935 18.5662 31.9472 18.5662ZM39.6103 29.5135C40.6639 29.5135 41.526 30.3756 41.526 31.4292V35.8081C41.526 36.8618 40.6639 37.7239 39.6103 37.7239C38.5566 37.7239 37.6945 36.8618 37.6945 35.8081V31.4292C37.6945 30.3756 38.5566 29.5135 39.6103 29.5135Z" fill="#1C4532"/>
</g>
</g>
<defs>
<filter id="filter0_d_2_9574" x="0" y="0" width="64" height="64" filterUnits="userSpaceOnUse" color-interpolation-filters="sRGB">
<feFlood flood-opacity="0" result="BackgroundImageFix"/>
<feColorMatrix in="SourceAlpha" type="matrix" values="0 0 0 0 0 0 0 0 0 0 0 0 0 0 0 0 0 0 127 0" result="hardAlpha"/>
<feOffset dy="4"/>
<feGaussianBlur stdDeviation="2"/>
<feComposite in2="hardAlpha" operator="out"/>
<feColorMatrix type="matrix" values="0 0 0 0 0 0 0 0 0 0 0 0 0 0 0 0 0 0 0.25 0"/>
<feBlend mode="normal" in2="BackgroundImageFix" result="effect1_dropShadow_2_9574"/>
<feBlend mode="normal" in="SourceGraphic" in2="effect1_dropShadow_2_9574" result="shape"/>
</filter>
<clipPath id="clip0_2_9574">
<rect width="32.8417" height="32.8417" fill="white" transform="translate(15.5264 11.7242)"/>
</clipPath>
</defs>
</svg>
